<?xml version="1.0" encoding="UTF-8"?>
<svg id="Layer_2" data-name="Layer 2" xmlns="http://www.w3.org/2000/svg" xmlns:xlink="http://www.w3.org/1999/xlink" viewBox="0 0 2700 1520">
  <defs>
    <linearGradient id="linear-gradient" x1="1939.549" y1="295.761" x2="2049.847" y2="99.675" gradientUnits="userSpaceOnUse">
      <stop offset="0" stop-color="#fff"/>
      <stop offset="1" stop-color="#e8e8e8"/>
    </linearGradient>
    <linearGradient id="linear-gradient-2" x1="2099.824" y1="276.001" x2="2130.462" y2="-122.297" xlink:href="#linear-gradient"/>
    <linearGradient id="linear-gradient-3" x1="1628.839" y1="768.545" x2="1849.435" y2="131.268" xlink:href="#linear-gradient"/>
    <linearGradient id="linear-gradient-4" x1="529.012" y1="1696.897" x2="810.884" y2="495.873" xlink:href="#linear-gradient"/>
    <linearGradient id="linear-gradient-5" x1="1051.371" y1="1214.305" x2="1559.967" y2="301.284" xlink:href="#linear-gradient"/>
    <linearGradient id="linear-gradient-6" x1="966.297" y1="1404.275" x2="1235.914" y2="1085.637" xlink:href="#linear-gradient"/>
  </defs>
  <g id="BackgroundWavesA">
    <g>
      <rect width="2700" height="1520" style="fill: #fff; stroke-width: 0px;"/>
      <path d="M1950.42,302.645c238.555,89.8,494.836,130.992,749.58,123.302v-193.658c-304.711,33.133-617.3-4.585-904.242-112.6-92.631-34.87-182.329-76.659-271.516-119.688h-252.007c22.037,7.974,43.875,16.357,65.469,25.08,207.961,84.008,402.809,198.548,612.717,277.565Z" style="fill: url(#linear-gradient); stroke-width: 0px;"/>
      <path d="M2700,232.288V0h-1175.759c89.187,43.029,178.885,84.818,271.516,119.688,286.942,108.015,599.531,145.733,904.242,112.6Z" style="fill: url(#linear-gradient-2); stroke-width: 0px;"/>
      <path d="M1950.42,302.645c-209.908-79.016-404.757-193.557-612.717-277.565-21.593-8.723-43.431-17.106-65.469-25.08h-466.49c170.316,138.124,321.232,299.43,495.676,432.346,355.495,270.867,806.058,414.305,1252.718,398.807,48.747-1.691,97.41-5.275,145.862-10.701v-394.507c-254.744,7.691-511.025-33.501-749.58-123.302Z" style="fill: url(#linear-gradient-3); stroke-width: 0px;"/>
      <path d="M345.138,800.879C240.141,716.839,124.244,641.149,0,591.182v928.818h1359.044c-181.318-66.929-352.861-160.239-506.618-277.393-178.402-135.932-332.184-301.573-507.288-441.728Z" style="fill: url(#linear-gradient-4); stroke-width: 0px;"/>
      <path d="M1301.42,432.346C1126.976,299.43,976.06,138.124,805.744,0H0v381.616c145.79,48.117,281.034,133.772,401.849,230.473,175.104,140.155,328.886,305.795,507.288,441.728,355.495,270.867,806.058,414.305,1252.718,398.807,182.781-6.342,364.366-39.287,538.145-96.198v-535.973c-48.452,5.425-97.115,9.009-145.862,10.701-446.66,15.498-897.223-127.94-1252.718-398.807Z" style="fill: url(#linear-gradient-5); stroke-width: 0px;"/>
      <path d="M909.137,1053.816c-178.402-135.932-332.184-301.573-507.288-441.728C281.034,515.387,145.79,429.733,0,381.616v209.567c124.244,49.967,240.141,125.657,345.138,209.697,175.104,140.155,328.886,305.796,507.288,441.728,153.757,117.154,325.3,210.464,506.618,277.393h1340.956v-163.575c-173.779,56.911-355.364,89.856-538.145,96.198-446.66,15.498-897.223-127.94-1252.718-398.807Z" style="fill: url(#linear-gradient-6); stroke-width: 0px;"/>
    </g>
  </g>
</svg>