{"scene":0,"asset":{"generator":"ImageToStl.com","version":"2.0"},"scenes":[{"name":"Scene","nodes":[0]}],"nodes":[{"name":"Node0","children":[1]},{"name":"Node1","mesh":0}],"materials":[{"name":"x1","pbrMetallicRoughness":{"baseColorFactor":[0.85,0.85,0.85,1.0],"metallicFactor":0.05,"roughnessFactor":0.5},"doubleSided":true}],"meshes":[{"name":"Mesh0","primitives":[{"indices":2,"material":0,"attributes":{"POSITION":0,"NORMAL":1}}]}],"accessors":[{"bufferView":0,"componentType":5126,"count":87804,"type":"VEC3","min":[0.0053837043,0.00013144848,0.0015865851],"max":[0.87152547,1.4565594,0.8677477]},{"bufferView":1,"componentType":5126,"count":87804,"type":"VEC3"},{"bufferView":2,"componentType":5125,"count":87804,"type":"SCALAR"}],"bufferViews":[{"target":34962,"buffer":0,"byteLength":1053648,"byteOffset":0},{"target":34962,"buffer":0,"byteLength":1053648,"byteOffset":1053648},{"target":34963,"buffer":0,"byteLength":351216,"byteOffset":2107296}],"buffers":[{"byteLength":2458512,"uri":"data:application/octet-stream;base64,"}]}