{
    "asset": {
        "version": "2.0",
        "generator": "Open Asset Import Library (assimp v5.2.cf7d3637)"
    },
    "extensionsUsed": [
        "KHR_materials_volume",
        "FB_ngon_encoding"
    ],
    "accessors": [
        {
            "bufferView": 0,
            "byteOffset": 0,
            "componentType": 5126,
            "count": 56400,
            "type": "VEC3",
            "max": [
                0.2427869439125061,
                0.3162790536880493,
                1.0
            ],
            "min": [
                -0.2427869439125061,
                -0.3162790834903717,
                -1.0
            ]
        },
        {
            "bufferView": 1,
            "byteOffset": 0,
            "componentType": 5126,
            "count": 56400,
            "type": "VEC3",
            "max": [
                0.9999668598175049,
                0.9998533725738525,
                0.9993551969528198
            ],
            "min": [
                -0.9999285936355591,
                -0.9999597072601318,
                -0.9998321533203125
            ]
        },
        {
            "bufferView": 2,
            "byteOffset": 0,
            "componentType": 5125,
            "count": 56400,
            "type": "SCALAR",
            "max": [
                56399
            ],
            "min": [
                0
            ]
        }
    ],
    "buffers": [
        {
            "byteLength": 1579200,
            "uri": "result.bin"
        }
    ],
    "bufferViews": [
        {
            "buffer": 0,
            "byteOffset": 0,
            "byteLength": 676800,
            "target": 34962
        },
        {
            "buffer": 0,
            "byteOffset": 676800,
            "byteLength": 676800,
            "target": 34962
        },
        {
            "buffer": 0,
            "byteOffset": 1353600,
            "byteLength": 225600,
            "target": 34963
        }
    ],
    "materials": [
        {
            "name": "material"
        }
    ],
    "meshes": [
        {
            "name": "Tyrannosaurus_New_Adult_Teeth_Low_0_mesh0000",
            "primitives": [
                {
                    "mode": 4,
                    "material": 0,
                    "indices": 2,
                    "attributes": {
                        "POSITION": 0,
                        "NORMAL": 1
                    }
                }
            ]
        }
    ],
    "nodes": [
        {
            "name": "Tyrannosaurus_New_Adult_Teeth_Low_0",
            "mesh": 0
        }
    ],
    "scenes": [
        {
            "nodes": [
                0
            ]
        }
    ],
    "scene": 0
}